<svg xmlns="http://www.w3.org/2000/svg" xmlns:xlink="http://www.w3.org/1999/xlink" width="502" zoomAndPan="magnify" viewBox="0 0 376.5 92.249997" height="123" preserveAspectRatio="xMidYMid meet" version="1.0"><defs><g/><clipPath id="6011e6b745"><path d="M 1.269531 0.425781 L 374.734375 0.425781 L 374.734375 91.082031 L 1.269531 91.082031 Z M 1.269531 0.425781 " clip-rule="nonzero"/></clipPath><clipPath id="ac97898e1b"><path d="M 5.878906 4.574219 L 114.449219 4.574219 L 114.449219 86.929688 L 5.878906 86.929688 Z M 5.878906 4.574219 " clip-rule="nonzero"/></clipPath><clipPath id="fe91171f21"><path d="M 16.484375 17.683594 L 59.773438 17.683594 L 59.773438 73.796875 L 16.484375 73.796875 Z M 16.484375 17.683594 " clip-rule="nonzero"/></clipPath><clipPath id="83e36f054d"><path d="M 28 37 L 59.773438 37 L 59.773438 60 L 28 60 Z M 28 37 " clip-rule="nonzero"/></clipPath><clipPath id="68149a0831"><path d="M 16.484375 17.683594 L 59.773438 17.683594 L 59.773438 38 L 16.484375 38 Z M 16.484375 17.683594 " clip-rule="nonzero"/></clipPath><clipPath id="3f0bd6569a"><path d="M 16.484375 59 L 48 59 L 48 73.796875 L 16.484375 73.796875 Z M 16.484375 59 " clip-rule="nonzero"/></clipPath><clipPath id="4b720415d6"><path d="M 64.925781 17.683594 L 108.214844 17.683594 L 108.214844 73.796875 L 64.925781 73.796875 Z M 64.925781 17.683594 " clip-rule="nonzero"/></clipPath><clipPath id="6fe4106f94"><path d="M 77 37 L 108.214844 37 L 108.214844 60 L 77 60 Z M 77 37 " clip-rule="nonzero"/></clipPath><clipPath id="0cdefee07e"><path d="M 64.925781 17.683594 L 108.214844 17.683594 L 108.214844 38 L 64.925781 38 Z M 64.925781 17.683594 " clip-rule="nonzero"/></clipPath><clipPath id="5551e19231"><path d="M 64.925781 59 L 97 59 L 97 73.796875 L 64.925781 73.796875 Z M 64.925781 59 " clip-rule="nonzero"/></clipPath></defs><g clip-path="url(#6011e6b745)"><path fill="#15860c" d="M 1.269531 0.425781 L 374.734375 0.425781 L 374.734375 91.082031 L 1.269531 91.082031 Z M 1.269531 0.425781 " fill-opacity="1" fill-rule="nonzero"/></g><g clip-path="url(#ac97898e1b)"><path fill="#ffffff" d="M 5.878906 4.574219 L 114.449219 4.574219 L 114.449219 86.929688 L 5.878906 86.929688 Z M 5.878906 4.574219 " fill-opacity="1" fill-rule="nonzero"/></g><g clip-path="url(#fe91171f21)"><path fill="#ce0406" d="M 33.644531 39.515625 L 43 39.515625 C 52.472656 39.515625 60.152344 47.195312 60.152344 56.667969 C 60.152344 66.140625 52.472656 73.820312 43 73.820312 L 16.492188 73.820312 C 16.492188 66.925781 22.074219 61.34375 28.964844 61.34375 L 43 61.34375 C 45.582031 61.34375 47.679688 59.25 47.679688 56.667969 C 47.679688 54.082031 45.582031 51.988281 43 51.988281 L 33.644531 51.988281 C 24.171875 51.988281 16.492188 44.308594 16.492188 34.835938 C 16.492188 25.363281 24.171875 17.683594 33.644531 17.683594 L 60.152344 17.683594 C 60.152344 24.574219 54.570312 30.15625 47.679688 30.15625 L 33.644531 30.15625 C 31.0625 30.15625 28.964844 32.253906 28.964844 34.835938 C 28.964844 37.417969 31.0625 39.515625 33.644531 39.515625 " fill-opacity="1" fill-rule="evenodd"/></g><g clip-path="url(#83e36f054d)"><path fill="#ce0406" d="M 60.15625 56.667969 C 60.15625 57.726562 60.0625 58.773438 59.875 59.785156 C 58.40625 51.800781 51.40625 45.75 43 45.75 L 33.644531 45.75 C 32.351562 45.75 31.183594 45.222656 30.339844 44.378906 C 29.5 43.539062 28.96875 42.367188 28.96875 41.074219 C 28.96875 39.871094 29.417969 38.78125 30.167969 37.953125 C 30.214844 38.015625 30.277344 38.078125 30.339844 38.140625 C 31.183594 38.984375 32.351562 39.515625 33.644531 39.515625 L 43 39.515625 C 52.46875 39.515625 60.15625 47.1875 60.15625 56.667969 " fill-opacity="1" fill-rule="evenodd"/></g><g clip-path="url(#68149a0831)"><path fill="#ce0406" d="M 16.773438 37.953125 C 16.585938 36.941406 16.492188 35.894531 16.492188 34.835938 C 16.492188 30.09375 18.410156 25.808594 21.511719 22.703125 C 24.617188 19.601562 28.90625 17.683594 33.644531 17.683594 L 60.15625 17.683594 C 60.15625 19.960938 59.546875 22.097656 58.46875 23.921875 L 33.644531 23.921875 C 28.90625 23.921875 24.617188 25.839844 21.511719 28.941406 C 19.113281 31.34375 17.414062 34.460938 16.773438 37.953125 " fill-opacity="1" fill-rule="evenodd"/></g><g clip-path="url(#3f0bd6569a)"><path fill="#ce0406" d="M 46.480469 59.785156 C 47.226562 60.613281 47.679688 61.703125 47.679688 62.90625 C 47.679688 65.492188 45.589844 67.582031 43 67.582031 L 28.96875 67.582031 C 24.351562 67.582031 20.3125 70.09375 18.175781 73.820312 L 16.492188 73.820312 C 16.492188 66.925781 22.074219 61.34375 28.96875 61.34375 L 43 61.34375 C 44.390625 61.34375 45.636719 60.753906 46.480469 59.785156 " fill-opacity="1" fill-rule="evenodd"/></g><g clip-path="url(#4b720415d6)"><path fill="#ce0406" d="M 82.085938 39.515625 L 91.441406 39.515625 C 100.914062 39.515625 108.59375 47.195312 108.59375 56.667969 C 108.59375 66.140625 100.914062 73.820312 91.441406 73.820312 L 64.933594 73.820312 C 64.933594 66.925781 70.515625 61.34375 77.40625 61.34375 L 91.441406 61.34375 C 94.027344 61.34375 96.121094 59.25 96.121094 56.667969 C 96.121094 54.082031 94.027344 51.988281 91.441406 51.988281 L 82.085938 51.988281 C 72.613281 51.988281 64.933594 44.308594 64.933594 34.835938 C 64.933594 25.363281 72.613281 17.683594 82.085938 17.683594 L 108.59375 17.683594 C 108.59375 24.574219 103.011719 30.15625 96.121094 30.15625 L 82.085938 30.15625 C 79.503906 30.15625 77.40625 32.253906 77.40625 34.835938 C 77.40625 37.417969 79.503906 39.515625 82.085938 39.515625 " fill-opacity="1" fill-rule="evenodd"/></g><g clip-path="url(#6fe4106f94)"><path fill="#ce0406" d="M 108.597656 56.667969 C 108.597656 57.726562 108.503906 58.773438 108.316406 59.785156 C 106.851562 51.800781 99.847656 45.75 91.441406 45.75 L 82.085938 45.75 C 80.792969 45.75 79.625 45.222656 78.78125 44.378906 C 77.941406 43.539062 77.410156 42.367188 77.410156 41.074219 C 77.410156 39.871094 77.863281 38.78125 78.609375 37.953125 C 78.65625 38.015625 78.71875 38.078125 78.78125 38.140625 C 79.625 38.984375 80.792969 39.515625 82.085938 39.515625 L 91.445312 39.515625 C 100.910156 39.515625 108.597656 47.1875 108.597656 56.667969 " fill-opacity="1" fill-rule="evenodd"/></g><g clip-path="url(#0cdefee07e)"><path fill="#ce0406" d="M 65.214844 37.953125 C 65.027344 36.941406 64.933594 35.894531 64.933594 34.835938 C 64.933594 30.09375 66.851562 25.808594 69.957031 22.703125 C 73.058594 19.601562 77.347656 17.683594 82.085938 17.683594 L 108.597656 17.683594 C 108.597656 19.960938 107.988281 22.097656 106.914062 23.921875 L 82.085938 23.921875 C 77.347656 23.921875 73.058594 25.839844 69.957031 28.941406 C 67.554688 31.34375 65.855469 34.460938 65.214844 37.953125 " fill-opacity="1" fill-rule="evenodd"/></g><g clip-path="url(#5551e19231)"><path fill="#ce0406" d="M 94.921875 59.785156 C 95.667969 60.613281 96.121094 61.703125 96.121094 62.90625 C 96.121094 65.492188 94.03125 67.582031 91.441406 67.582031 L 77.410156 67.582031 C 72.792969 67.582031 68.753906 70.09375 66.617188 73.820312 L 64.933594 73.820312 C 64.933594 66.925781 70.515625 61.34375 77.410156 61.34375 L 91.445312 61.34375 C 92.832031 61.34375 94.078125 60.753906 94.921875 59.785156 " fill-opacity="1" fill-rule="evenodd"/></g><g fill="#ffffff" fill-opacity="1"><g transform="translate(130.9794, 56.424098)"><g><path d="M 16.5625 -25.15625 L 16.5625 -18.109375 L 11.609375 -18.109375 C 10.816406 -18.109375 10.269531 -18.039062 9.96875 -17.90625 C 9.675781 -17.78125 9.53125 -17.550781 9.53125 -17.21875 C 9.53125 -16.945312 9.738281 -16.625 10.15625 -16.25 C 10.570312 -15.882812 11.1875 -15.425781 12 -14.875 C 12.8125 -14.300781 13.5625 -13.71875 14.25 -13.125 C 14.9375 -12.539062 15.523438 -11.925781 16.015625 -11.28125 C 16.503906 -10.632812 16.882812 -9.953125 17.15625 -9.234375 C 17.4375 -8.515625 17.578125 -7.757812 17.578125 -6.96875 C 17.578125 -5.769531 17.320312 -4.734375 16.8125 -3.859375 C 16.3125 -2.984375 15.644531 -2.257812 14.8125 -1.6875 C 13.988281 -1.113281 13.03125 -0.6875 11.9375 -0.40625 C 10.851562 -0.132812 9.738281 0 8.59375 0 L 0.828125 0 L 0.828125 -7.1875 L 5.828125 -7.1875 C 6.828125 -7.1875 7.523438 -7.265625 7.921875 -7.421875 C 8.316406 -7.578125 8.515625 -7.894531 8.515625 -8.375 C 8.515625 -8.832031 7.75 -9.625 6.21875 -10.75 C 5.476562 -11.300781 4.78125 -11.859375 4.125 -12.421875 C 3.476562 -12.984375 2.914062 -13.570312 2.4375 -14.1875 C 1.957031 -14.8125 1.582031 -15.457031 1.3125 -16.125 C 1.039062 -16.800781 0.90625 -17.523438 0.90625 -18.296875 C 0.90625 -20.617188 1.648438 -22.34375 3.140625 -23.46875 C 4.640625 -24.59375 6.695312 -25.15625 9.3125 -25.15625 Z M 16.5625 -25.15625 "/></g></g></g><g fill="#ffffff" fill-opacity="1"><g transform="translate(148.945248, 56.424098)"><g><path d="M 20.40625 -16.671875 C 20.40625 -13.648438 19.582031 -11.375 17.9375 -9.84375 C 16.300781 -8.3125 13.84375 -7.546875 10.5625 -7.546875 L 10.5625 -14.453125 C 11.351562 -14.472656 11.976562 -14.628906 12.4375 -14.921875 C 12.894531 -15.222656 13.125 -15.648438 13.125 -16.203125 C 13.125 -16.785156 12.976562 -17.269531 12.6875 -17.65625 C 12.394531 -18.050781 11.988281 -18.25 11.46875 -18.25 C 10.769531 -18.25 10.273438 -18.054688 9.984375 -17.671875 C 9.703125 -17.296875 9.5625 -16.738281 9.5625 -16 L 9.5625 0 L 1.71875 0 L 1.71875 -15.125 C 1.71875 -16.726562 1.925781 -18.171875 2.34375 -19.453125 C 2.769531 -20.742188 3.378906 -21.84375 4.171875 -22.75 C 4.960938 -23.65625 5.9375 -24.351562 7.09375 -24.84375 C 8.257812 -25.34375 9.582031 -25.59375 11.0625 -25.59375 C 12.4375 -25.59375 13.691406 -25.359375 14.828125 -24.890625 C 15.960938 -24.421875 16.941406 -23.78125 17.765625 -22.96875 C 18.597656 -22.15625 19.242188 -21.207031 19.703125 -20.125 C 20.171875 -19.050781 20.40625 -17.898438 20.40625 -16.671875 Z M 20.40625 -16.671875 "/></g></g></g><g fill="#ffffff" fill-opacity="1"><g transform="translate(169.570043, 56.424098)"><g><path d="M 27.3125 -12.578125 C 27.3125 -10.785156 26.96875 -9.097656 26.28125 -7.515625 C 25.601562 -5.929688 24.671875 -4.550781 23.484375 -3.375 C 22.296875 -2.207031 20.910156 -1.28125 19.328125 -0.59375 C 17.753906 0.09375 16.078125 0.4375 14.296875 0.4375 C 12.523438 0.4375 10.847656 0.09375 9.265625 -0.59375 C 7.691406 -1.28125 6.3125 -2.207031 5.125 -3.375 C 3.9375 -4.550781 3 -5.929688 2.3125 -7.515625 C 1.632812 -9.097656 1.296875 -10.785156 1.296875 -12.578125 C 1.296875 -14.378906 1.632812 -16.0625 2.3125 -17.625 C 3 -19.195312 3.9375 -20.578125 5.125 -21.765625 C 6.3125 -22.953125 7.6875 -23.882812 9.25 -24.5625 C 10.820312 -25.25 12.503906 -25.59375 14.296875 -25.59375 C 16.097656 -25.59375 17.78125 -25.25 19.34375 -24.5625 C 20.914062 -23.882812 22.296875 -22.953125 23.484375 -21.765625 C 24.671875 -20.578125 25.601562 -19.195312 26.28125 -17.625 C 26.96875 -16.0625 27.3125 -14.378906 27.3125 -12.578125 Z M 14.296875 -7.546875 C 14.992188 -7.546875 15.644531 -7.675781 16.25 -7.9375 C 16.863281 -8.207031 17.398438 -8.566406 17.859375 -9.015625 C 18.316406 -9.472656 18.675781 -10.003906 18.9375 -10.609375 C 19.195312 -11.222656 19.328125 -11.878906 19.328125 -12.578125 C 19.328125 -13.242188 19.195312 -13.882812 18.9375 -14.5 C 18.675781 -15.113281 18.316406 -15.648438 17.859375 -16.109375 C 17.398438 -16.578125 16.863281 -16.941406 16.25 -17.203125 C 15.644531 -17.472656 14.984375 -17.609375 14.265625 -17.609375 C 13.597656 -17.609375 12.957031 -17.472656 12.34375 -17.203125 C 11.726562 -16.941406 11.191406 -16.582031 10.734375 -16.125 C 10.285156 -15.675781 9.925781 -15.144531 9.65625 -14.53125 C 9.394531 -13.925781 9.265625 -13.273438 9.265625 -12.578125 C 9.265625 -11.878906 9.394531 -11.222656 9.65625 -10.609375 C 9.925781 -10.003906 10.285156 -9.472656 10.734375 -9.015625 C 11.191406 -8.566406 11.726562 -8.207031 12.34375 -7.9375 C 12.957031 -7.675781 13.609375 -7.546875 14.296875 -7.546875 Z M 14.296875 -7.546875 "/></g></g></g><g fill="#ffffff" fill-opacity="1"><g transform="translate(198.171662, 56.424098)"><g><path d="M 20.3125 -17.890625 C 20.3125 -16.929688 20.097656 -15.976562 19.671875 -15.03125 C 19.253906 -14.09375 18.660156 -13.3125 17.890625 -12.6875 C 18.972656 -12.28125 19.707031 -11.632812 20.09375 -10.75 C 20.476562 -9.863281 20.671875 -8.84375 20.671875 -7.6875 L 20.671875 0 L 12.828125 0 L 12.828125 -6.4375 C 12.828125 -7.25 12.6875 -7.835938 12.40625 -8.203125 C 12.132812 -8.578125 11.535156 -8.765625 10.609375 -8.765625 L 10.609375 -14.8125 C 11.222656 -14.8125 11.796875 -14.9375 12.328125 -15.1875 C 12.859375 -15.4375 13.125 -15.910156 13.125 -16.609375 C 13.125 -17.179688 12.976562 -17.632812 12.6875 -17.96875 C 12.394531 -18.300781 11.941406 -18.46875 11.328125 -18.46875 C 10.628906 -18.46875 10.15625 -18.300781 9.90625 -17.96875 C 9.65625 -17.632812 9.53125 -17.0625 9.53125 -16.25 L 9.53125 0 L 1.6875 0 L 1.6875 -16.0625 C 1.6875 -19.101562 2.503906 -21.453125 4.140625 -23.109375 C 5.785156 -24.765625 8.15625 -25.59375 11.25 -25.59375 C 12.5 -25.59375 13.664062 -25.382812 14.75 -24.96875 C 15.84375 -24.5625 16.800781 -24.007812 17.625 -23.3125 C 18.457031 -22.625 19.113281 -21.8125 19.59375 -20.875 C 20.070312 -19.945312 20.3125 -18.953125 20.3125 -17.890625 Z M 20.3125 -17.890625 "/></g></g></g><g fill="#ffffff" fill-opacity="1"><g transform="translate(220.125931, 56.424098)"><g><path d="M 16.0625 -25.15625 L 16.0625 -17.96875 L 11.890625 -17.96875 L 11.890625 0 L 4.0625 0 L 4.0625 -17.96875 L -0.078125 -17.96875 L -0.078125 -25.15625 Z M 16.0625 -25.15625 "/></g></g></g><g fill="#ffffff" fill-opacity="1"><g transform="translate(236.079596, 56.424098)"><g><path d="M 16.5625 -25.15625 L 16.5625 -18.109375 L 11.609375 -18.109375 C 10.816406 -18.109375 10.269531 -18.039062 9.96875 -17.90625 C 9.675781 -17.78125 9.53125 -17.550781 9.53125 -17.21875 C 9.53125 -16.945312 9.738281 -16.625 10.15625 -16.25 C 10.570312 -15.882812 11.1875 -15.425781 12 -14.875 C 12.8125 -14.300781 13.5625 -13.71875 14.25 -13.125 C 14.9375 -12.539062 15.523438 -11.925781 16.015625 -11.28125 C 16.503906 -10.632812 16.882812 -9.953125 17.15625 -9.234375 C 17.4375 -8.515625 17.578125 -7.757812 17.578125 -6.96875 C 17.578125 -5.769531 17.320312 -4.734375 16.8125 -3.859375 C 16.3125 -2.984375 15.644531 -2.257812 14.8125 -1.6875 C 13.988281 -1.113281 13.03125 -0.6875 11.9375 -0.40625 C 10.851562 -0.132812 9.738281 0 8.59375 0 L 0.828125 0 L 0.828125 -7.1875 L 5.828125 -7.1875 C 6.828125 -7.1875 7.523438 -7.265625 7.921875 -7.421875 C 8.316406 -7.578125 8.515625 -7.894531 8.515625 -8.375 C 8.515625 -8.832031 7.75 -9.625 6.21875 -10.75 C 5.476562 -11.300781 4.78125 -11.859375 4.125 -12.421875 C 3.476562 -12.984375 2.914062 -13.570312 2.4375 -14.1875 C 1.957031 -14.8125 1.582031 -15.457031 1.3125 -16.125 C 1.039062 -16.800781 0.90625 -17.523438 0.90625 -18.296875 C 0.90625 -20.617188 1.648438 -22.34375 3.140625 -23.46875 C 4.640625 -24.59375 6.695312 -25.15625 9.3125 -25.15625 Z M 16.5625 -25.15625 "/></g></g></g><g fill="#ffffff" fill-opacity="1"><g transform="translate(254.045444, 56.424098)"><g><path d="M 9.671875 -25.15625 L 9.671875 -16.140625 C 9.835938 -16.140625 9.972656 -16.15625 10.078125 -16.1875 C 10.191406 -16.226562 10.269531 -16.269531 10.3125 -16.3125 C 10.507812 -16.476562 10.691406 -16.828125 10.859375 -17.359375 C 11.023438 -17.890625 11.25 -18.570312 11.53125 -19.40625 L 13.4375 -25.15625 L 21.3125 -25.15625 L 19.015625 -18.15625 C 18.773438 -17.40625 18.585938 -16.867188 18.453125 -16.546875 C 18.316406 -16.222656 18.179688 -15.929688 18.046875 -15.671875 C 17.773438 -15.117188 17.351562 -14.578125 16.78125 -14.046875 C 18.03125 -13.597656 18.988281 -12.984375 19.65625 -12.203125 C 20.332031 -11.421875 20.671875 -10.585938 20.671875 -9.703125 L 20.671875 0 L 12.828125 0 L 12.828125 -8.65625 C 12.828125 -9.132812 12.601562 -9.519531 12.15625 -9.8125 C 11.71875 -10.101562 10.890625 -10.25 9.671875 -10.25 L 9.671875 0 L 1.828125 0 L 1.828125 -25.15625 Z M 9.671875 -25.15625 "/></g></g></g><g fill="#ffffff" fill-opacity="1"><g transform="translate(276.682406, 56.424098)"><g><path d="M 9.5625 -25.15625 L 9.5625 0 L 1.71875 0 L 1.71875 -25.15625 Z M 9.5625 -25.15625 "/></g></g></g><g fill="#ffffff" fill-opacity="1"><g transform="translate(288.000886, 56.424098)"><g><path d="M 9.59375 -25.15625 L 9.59375 -9.265625 C 9.59375 -8.742188 9.703125 -8.332031 9.921875 -8.03125 C 10.140625 -7.726562 10.519531 -7.519531 11.0625 -7.40625 C 11.28125 -7.351562 11.472656 -7.316406 11.640625 -7.296875 C 11.804688 -7.273438 12.003906 -7.253906 12.234375 -7.234375 C 12.460938 -7.222656 12.742188 -7.210938 13.078125 -7.203125 C 13.410156 -7.191406 13.851562 -7.1875 14.40625 -7.1875 L 16.140625 -7.1875 L 16.140625 0 L 9.09375 0 C 8.039062 0 7.0625 -0.175781 6.15625 -0.53125 C 5.257812 -0.894531 4.488281 -1.398438 3.84375 -2.046875 C 3.195312 -2.691406 2.6875 -3.457031 2.3125 -4.34375 C 1.945312 -5.226562 1.765625 -6.203125 1.765625 -7.265625 L 1.765625 -25.15625 Z M 9.59375 -25.15625 "/></g></g></g><g fill="#ffffff" fill-opacity="1"><g transform="translate(303.954552, 56.424098)"><g><path d="M 9.59375 -25.15625 L 9.59375 -9.265625 C 9.59375 -8.742188 9.703125 -8.332031 9.921875 -8.03125 C 10.140625 -7.726562 10.519531 -7.519531 11.0625 -7.40625 C 11.28125 -7.351562 11.472656 -7.316406 11.640625 -7.296875 C 11.804688 -7.273438 12.003906 -7.253906 12.234375 -7.234375 C 12.460938 -7.222656 12.742188 -7.210938 13.078125 -7.203125 C 13.410156 -7.191406 13.851562 -7.1875 14.40625 -7.1875 L 16.140625 -7.1875 L 16.140625 0 L 9.09375 0 C 8.039062 0 7.0625 -0.175781 6.15625 -0.53125 C 5.257812 -0.894531 4.488281 -1.398438 3.84375 -2.046875 C 3.195312 -2.691406 2.6875 -3.457031 2.3125 -4.34375 C 1.945312 -5.226562 1.765625 -6.203125 1.765625 -7.265625 L 1.765625 -25.15625 Z M 9.59375 -25.15625 "/></g></g></g><g fill="#ffffff" fill-opacity="1"><g transform="translate(319.908217, 56.424098)"><g><path d="M 13.578125 -25.15625 C 15.191406 -25.15625 16.492188 -24.734375 17.484375 -23.890625 C 18.472656 -23.054688 18.96875 -21.8125 18.96875 -20.15625 C 18.96875 -19.75 18.9375 -19.390625 18.875 -19.078125 C 18.820312 -18.765625 18.734375 -18.460938 18.609375 -18.171875 C 18.492188 -17.890625 18.335938 -17.601562 18.140625 -17.3125 C 17.953125 -17.03125 17.71875 -16.722656 17.4375 -16.390625 L 10.0625 -7.1875 L 18.96875 -7.1875 L 18.96875 0 L 5.640625 0 C 4.035156 0 2.738281 -0.414062 1.75 -1.25 C 0.769531 -2.09375 0.28125 -3.34375 0.28125 -5 C 0.28125 -5.625 0.375 -6.207031 0.5625 -6.75 C 0.757812 -7.300781 1.171875 -7.960938 1.796875 -8.734375 L 9.5625 -17.96875 L 1.578125 -17.96875 L 1.578125 -25.15625 Z M 13.578125 -25.15625 "/></g></g></g><g fill="#ffffff" fill-opacity="1"><g transform="translate(339.203539, 56.424098)"><g><path d="M 13.578125 -25.15625 C 15.191406 -25.15625 16.492188 -24.734375 17.484375 -23.890625 C 18.472656 -23.054688 18.96875 -21.8125 18.96875 -20.15625 C 18.96875 -19.75 18.9375 -19.390625 18.875 -19.078125 C 18.820312 -18.765625 18.734375 -18.460938 18.609375 -18.171875 C 18.492188 -17.890625 18.335938 -17.601562 18.140625 -17.3125 C 17.953125 -17.03125 17.71875 -16.722656 17.4375 -16.390625 L 10.0625 -7.1875 L 18.96875 -7.1875 L 18.96875 0 L 5.640625 0 C 4.035156 0 2.738281 -0.414062 1.75 -1.25 C 0.769531 -2.09375 0.28125 -3.34375 0.28125 -5 C 0.28125 -5.625 0.375 -6.207031 0.5625 -6.75 C 0.757812 -7.300781 1.171875 -7.960938 1.796875 -8.734375 L 9.5625 -17.96875 L 1.578125 -17.96875 L 1.578125 -25.15625 Z M 13.578125 -25.15625 "/></g></g></g></svg>