<svg xmlns="http://www.w3.org/2000/svg" xmlns:xlink="http://www.w3.org/1999/xlink" width="502" zoomAndPan="magnify" viewBox="0 0 376.5 92.249997" height="123" preserveAspectRatio="xMidYMid meet" version="1.0"><defs><g/><clipPath id="04041a6284"><path d="M 1.269531 0 L 374.734375 0 L 374.734375 91.507812 L 1.269531 91.507812 Z M 1.269531 0 " clip-rule="nonzero"/></clipPath><clipPath id="42e12d9883"><path d="M 1.269531 0.425781 L 374.734375 0.425781 L 374.734375 91.082031 L 1.269531 91.082031 Z M 1.269531 0.425781 " clip-rule="nonzero"/></clipPath><clipPath id="d09231bf53"><path d="M 5.878906 4.574219 L 114.449219 4.574219 L 114.449219 86.929688 L 5.878906 86.929688 Z M 5.878906 4.574219 " clip-rule="nonzero"/></clipPath><clipPath id="96454b37eb"><path d="M 14.101562 17.683594 L 57.996094 17.683594 L 57.996094 73.480469 L 14.101562 73.480469 Z M 14.101562 17.683594 " clip-rule="nonzero"/></clipPath><clipPath id="dbc9d3f404"><path d="M 26 37 L 57.996094 37 L 57.996094 60 L 26 60 Z M 26 37 " clip-rule="nonzero"/></clipPath><clipPath id="a8d9146d57"><path d="M 14.101562 17.683594 L 57.996094 17.683594 L 57.996094 38 L 14.101562 38 Z M 14.101562 17.683594 " clip-rule="nonzero"/></clipPath><clipPath id="16e2a00eb9"><path d="M 14.101562 59 L 46 59 L 46 73.480469 L 14.101562 73.480469 Z M 14.101562 59 " clip-rule="nonzero"/></clipPath><clipPath id="1fef84c6c5"><path d="M 62.542969 17.683594 L 106.4375 17.683594 L 106.4375 73.480469 L 62.542969 73.480469 Z M 62.542969 17.683594 " clip-rule="nonzero"/></clipPath><clipPath id="4410a64cf6"><path d="M 75 37 L 106.4375 37 L 106.4375 60 L 75 60 Z M 75 37 " clip-rule="nonzero"/></clipPath><clipPath id="46672b9a32"><path d="M 62.542969 17.683594 L 106.4375 17.683594 L 106.4375 38 L 62.542969 38 Z M 62.542969 17.683594 " clip-rule="nonzero"/></clipPath><clipPath id="c03689328b"><path d="M 62.542969 59 L 94 59 L 94 73.480469 L 62.542969 73.480469 Z M 62.542969 59 " clip-rule="nonzero"/></clipPath></defs><g clip-path="url(#04041a6284)"><path fill="#ffffff" d="M 1.269531 0 L 374.734375 0 L 374.734375 91.507812 L 1.269531 91.507812 Z M 1.269531 0 " fill-opacity="1" fill-rule="nonzero"/><path fill="#ffffff" d="M 1.269531 0 L 374.734375 0 L 374.734375 91.507812 L 1.269531 91.507812 Z M 1.269531 0 " fill-opacity="1" fill-rule="nonzero"/></g><g clip-path="url(#42e12d9883)"><path fill="#15860c" d="M 1.269531 0.425781 L 374.734375 0.425781 L 374.734375 91.082031 L 1.269531 91.082031 Z M 1.269531 0.425781 " fill-opacity="1" fill-rule="nonzero"/></g><g clip-path="url(#d09231bf53)"><path fill="#ffffff" d="M 5.878906 4.574219 L 114.449219 4.574219 L 114.449219 86.929688 L 5.878906 86.929688 Z M 5.878906 4.574219 " fill-opacity="1" fill-rule="nonzero"/></g><g clip-path="url(#96454b37eb)"><path fill="#ce0406" d="M 31.261719 39.511719 L 40.617188 39.511719 C 50.089844 39.511719 57.769531 47.191406 57.769531 56.664062 C 57.769531 66.136719 50.089844 73.816406 40.617188 73.816406 L 14.109375 73.816406 C 14.109375 66.925781 19.691406 61.34375 26.582031 61.34375 L 40.617188 61.34375 C 43.199219 61.34375 45.292969 59.246094 45.292969 56.664062 C 45.292969 54.082031 43.199219 51.988281 40.617188 51.988281 L 31.261719 51.984375 C 21.789062 51.984375 14.109375 44.308594 14.109375 34.835938 C 14.109375 25.363281 21.789062 17.683594 31.261719 17.683594 L 57.769531 17.683594 C 57.769531 24.574219 52.1875 30.15625 45.292969 30.15625 L 31.261719 30.15625 C 28.679688 30.15625 26.582031 32.25 26.582031 34.835938 C 26.582031 37.417969 28.675781 39.511719 31.261719 39.511719 " fill-opacity="1" fill-rule="evenodd"/></g><g clip-path="url(#dbc9d3f404)"><path fill="#ce0406" d="M 57.769531 56.664062 C 57.769531 57.722656 57.675781 58.769531 57.488281 59.78125 C 56.023438 51.800781 49.023438 45.75 40.617188 45.75 L 31.261719 45.75 C 29.96875 45.75 28.796875 45.21875 27.957031 44.378906 C 27.117188 43.535156 26.585938 42.367188 26.585938 41.070312 C 26.585938 39.871094 27.035156 38.78125 27.785156 37.953125 C 27.832031 38.015625 27.894531 38.078125 27.957031 38.140625 C 28.796875 38.980469 29.96875 39.511719 31.261719 39.511719 L 40.617188 39.511719 C 50.082031 39.511719 57.769531 47.183594 57.769531 56.664062 " fill-opacity="1" fill-rule="evenodd"/></g><g clip-path="url(#a8d9146d57)"><path fill="#ce0406" d="M 14.390625 37.953125 C 14.203125 36.941406 14.109375 35.894531 14.109375 34.835938 C 14.109375 30.09375 16.027344 25.804688 19.132812 22.703125 C 22.234375 19.601562 26.523438 17.683594 31.261719 17.683594 L 57.769531 17.683594 C 57.769531 19.960938 57.160156 22.09375 56.085938 23.917969 L 31.261719 23.917969 C 26.523438 23.917969 22.234375 25.835938 19.132812 28.941406 C 16.730469 31.339844 15.03125 34.460938 14.390625 37.953125 " fill-opacity="1" fill-rule="evenodd"/></g><g clip-path="url(#16e2a00eb9)"><path fill="#ce0406" d="M 44.09375 59.78125 C 44.84375 60.609375 45.296875 61.699219 45.296875 62.902344 C 45.296875 65.488281 43.207031 67.578125 40.617188 67.578125 L 26.585938 67.578125 C 21.96875 67.578125 17.929688 70.089844 15.792969 73.816406 L 14.109375 73.816406 C 14.109375 66.925781 19.691406 61.34375 26.585938 61.34375 L 40.617188 61.34375 C 42.003906 61.34375 43.253906 60.75 44.09375 59.78125 " fill-opacity="1" fill-rule="evenodd"/></g><g clip-path="url(#1fef84c6c5)"><path fill="#ce0406" d="M 79.703125 39.511719 L 89.058594 39.511719 C 98.53125 39.511719 106.210938 47.191406 106.210938 56.664062 C 106.210938 66.136719 98.53125 73.816406 89.058594 73.816406 L 62.550781 73.816406 C 62.550781 66.925781 68.132812 61.34375 75.023438 61.34375 L 89.058594 61.34375 C 91.640625 61.34375 93.734375 59.246094 93.734375 56.664062 C 93.734375 54.082031 91.640625 51.988281 89.058594 51.988281 L 79.703125 51.984375 C 70.230469 51.984375 62.550781 44.308594 62.550781 34.835938 C 62.550781 25.363281 70.230469 17.683594 79.703125 17.683594 L 106.210938 17.683594 C 106.210938 24.574219 100.628906 30.15625 93.734375 30.15625 L 79.703125 30.15625 C 77.121094 30.15625 75.023438 32.25 75.023438 34.835938 C 75.023438 37.417969 77.121094 39.511719 79.703125 39.511719 " fill-opacity="1" fill-rule="evenodd"/></g><g clip-path="url(#4410a64cf6)"><path fill="#ce0406" d="M 106.210938 56.664062 C 106.210938 57.722656 106.117188 58.769531 105.929688 59.78125 C 104.464844 51.800781 97.464844 45.75 89.058594 45.75 L 79.703125 45.75 C 78.410156 45.75 77.242188 45.21875 76.398438 44.378906 C 75.558594 43.535156 75.027344 42.367188 75.027344 41.070312 C 75.027344 39.871094 75.476562 38.78125 76.226562 37.953125 C 76.273438 38.015625 76.335938 38.078125 76.398438 38.140625 C 77.242188 38.980469 78.410156 39.511719 79.703125 39.511719 L 89.058594 39.511719 C 98.523438 39.511719 106.210938 47.183594 106.210938 56.664062 " fill-opacity="1" fill-rule="evenodd"/></g><g clip-path="url(#46672b9a32)"><path fill="#ce0406" d="M 62.832031 37.953125 C 62.644531 36.941406 62.550781 35.894531 62.550781 34.835938 C 62.550781 30.09375 64.46875 25.804688 67.574219 22.703125 C 70.675781 19.601562 74.964844 17.683594 79.703125 17.683594 L 106.210938 17.683594 C 106.210938 19.960938 105.601562 22.09375 104.527344 23.917969 L 79.703125 23.917969 C 74.964844 23.917969 70.675781 25.835938 67.574219 28.941406 C 65.171875 31.339844 63.472656 34.460938 62.832031 37.953125 " fill-opacity="1" fill-rule="evenodd"/></g><g clip-path="url(#c03689328b)"><path fill="#ce0406" d="M 92.535156 59.78125 C 93.285156 60.609375 93.738281 61.699219 93.738281 62.902344 C 93.738281 65.488281 91.648438 67.578125 89.058594 67.578125 L 75.027344 67.578125 C 70.410156 67.578125 66.371094 70.089844 64.234375 73.816406 L 62.550781 73.816406 C 62.550781 66.925781 68.132812 61.34375 75.027344 61.34375 L 89.058594 61.34375 C 90.449219 61.34375 91.695312 60.75 92.535156 59.78125 " fill-opacity="1" fill-rule="evenodd"/></g><g fill="#ffffff" fill-opacity="1"><g transform="translate(130.9794, 56.424098)"><g><path d="M 16.5625 -25.15625 L 16.5625 -18.109375 L 11.609375 -18.109375 C 10.816406 -18.109375 10.269531 -18.039062 9.96875 -17.90625 C 9.675781 -17.78125 9.53125 -17.550781 9.53125 -17.21875 C 9.53125 -16.945312 9.738281 -16.625 10.15625 -16.25 C 10.570312 -15.882812 11.1875 -15.425781 12 -14.875 C 12.8125 -14.300781 13.5625 -13.71875 14.25 -13.125 C 14.9375 -12.539062 15.523438 -11.925781 16.015625 -11.28125 C 16.503906 -10.632812 16.882812 -9.953125 17.15625 -9.234375 C 17.4375 -8.515625 17.578125 -7.757812 17.578125 -6.96875 C 17.578125 -5.769531 17.320312 -4.734375 16.8125 -3.859375 C 16.3125 -2.984375 15.644531 -2.257812 14.8125 -1.6875 C 13.988281 -1.113281 13.03125 -0.6875 11.9375 -0.40625 C 10.851562 -0.132812 9.738281 0 8.59375 0 L 0.828125 0 L 0.828125 -7.1875 L 5.828125 -7.1875 C 6.828125 -7.1875 7.523438 -7.265625 7.921875 -7.421875 C 8.316406 -7.578125 8.515625 -7.894531 8.515625 -8.375 C 8.515625 -8.832031 7.75 -9.625 6.21875 -10.75 C 5.476562 -11.300781 4.78125 -11.859375 4.125 -12.421875 C 3.476562 -12.984375 2.914062 -13.570312 2.4375 -14.1875 C 1.957031 -14.8125 1.582031 -15.457031 1.3125 -16.125 C 1.039062 -16.800781 0.90625 -17.523438 0.90625 -18.296875 C 0.90625 -20.617188 1.648438 -22.34375 3.140625 -23.46875 C 4.640625 -24.59375 6.695312 -25.15625 9.3125 -25.15625 Z M 16.5625 -25.15625 "/></g></g></g><g fill="#ffffff" fill-opacity="1"><g transform="translate(148.945248, 56.424098)"><g><path d="M 20.40625 -16.671875 C 20.40625 -13.648438 19.582031 -11.375 17.9375 -9.84375 C 16.300781 -8.3125 13.84375 -7.546875 10.5625 -7.546875 L 10.5625 -14.453125 C 11.351562 -14.472656 11.976562 -14.628906 12.4375 -14.921875 C 12.894531 -15.222656 13.125 -15.648438 13.125 -16.203125 C 13.125 -16.785156 12.976562 -17.269531 12.6875 -17.65625 C 12.394531 -18.050781 11.988281 -18.25 11.46875 -18.25 C 10.769531 -18.25 10.273438 -18.054688 9.984375 -17.671875 C 9.703125 -17.296875 9.5625 -16.738281 9.5625 -16 L 9.5625 0 L 1.71875 0 L 1.71875 -15.125 C 1.71875 -16.726562 1.925781 -18.171875 2.34375 -19.453125 C 2.769531 -20.742188 3.378906 -21.84375 4.171875 -22.75 C 4.960938 -23.65625 5.9375 -24.351562 7.09375 -24.84375 C 8.257812 -25.34375 9.582031 -25.59375 11.0625 -25.59375 C 12.4375 -25.59375 13.691406 -25.359375 14.828125 -24.890625 C 15.960938 -24.421875 16.941406 -23.78125 17.765625 -22.96875 C 18.597656 -22.15625 19.242188 -21.207031 19.703125 -20.125 C 20.171875 -19.050781 20.40625 -17.898438 20.40625 -16.671875 Z M 20.40625 -16.671875 "/></g></g></g><g fill="#ffffff" fill-opacity="1"><g transform="translate(169.570043, 56.424098)"><g><path d="M 27.3125 -12.578125 C 27.3125 -10.785156 26.96875 -9.097656 26.28125 -7.515625 C 25.601562 -5.929688 24.671875 -4.550781 23.484375 -3.375 C 22.296875 -2.207031 20.910156 -1.28125 19.328125 -0.59375 C 17.753906 0.09375 16.078125 0.4375 14.296875 0.4375 C 12.523438 0.4375 10.847656 0.09375 9.265625 -0.59375 C 7.691406 -1.28125 6.3125 -2.207031 5.125 -3.375 C 3.9375 -4.550781 3 -5.929688 2.3125 -7.515625 C 1.632812 -9.097656 1.296875 -10.785156 1.296875 -12.578125 C 1.296875 -14.378906 1.632812 -16.0625 2.3125 -17.625 C 3 -19.195312 3.9375 -20.578125 5.125 -21.765625 C 6.3125 -22.953125 7.6875 -23.882812 9.25 -24.5625 C 10.820312 -25.25 12.503906 -25.59375 14.296875 -25.59375 C 16.097656 -25.59375 17.78125 -25.25 19.34375 -24.5625 C 20.914062 -23.882812 22.296875 -22.953125 23.484375 -21.765625 C 24.671875 -20.578125 25.601562 -19.195312 26.28125 -17.625 C 26.96875 -16.0625 27.3125 -14.378906 27.3125 -12.578125 Z M 14.296875 -7.546875 C 14.992188 -7.546875 15.644531 -7.675781 16.25 -7.9375 C 16.863281 -8.207031 17.398438 -8.566406 17.859375 -9.015625 C 18.316406 -9.472656 18.675781 -10.003906 18.9375 -10.609375 C 19.195312 -11.222656 19.328125 -11.878906 19.328125 -12.578125 C 19.328125 -13.242188 19.195312 -13.882812 18.9375 -14.5 C 18.675781 -15.113281 18.316406 -15.648438 17.859375 -16.109375 C 17.398438 -16.578125 16.863281 -16.941406 16.25 -17.203125 C 15.644531 -17.472656 14.984375 -17.609375 14.265625 -17.609375 C 13.597656 -17.609375 12.957031 -17.472656 12.34375 -17.203125 C 11.726562 -16.941406 11.191406 -16.582031 10.734375 -16.125 C 10.285156 -15.675781 9.925781 -15.144531 9.65625 -14.53125 C 9.394531 -13.925781 9.265625 -13.273438 9.265625 -12.578125 C 9.265625 -11.878906 9.394531 -11.222656 9.65625 -10.609375 C 9.925781 -10.003906 10.285156 -9.472656 10.734375 -9.015625 C 11.191406 -8.566406 11.726562 -8.207031 12.34375 -7.9375 C 12.957031 -7.675781 13.609375 -7.546875 14.296875 -7.546875 Z M 14.296875 -7.546875 "/></g></g></g><g fill="#ffffff" fill-opacity="1"><g transform="translate(198.171662, 56.424098)"><g><path d="M 20.3125 -17.890625 C 20.3125 -16.929688 20.097656 -15.976562 19.671875 -15.03125 C 19.253906 -14.09375 18.660156 -13.3125 17.890625 -12.6875 C 18.972656 -12.28125 19.707031 -11.632812 20.09375 -10.75 C 20.476562 -9.863281 20.671875 -8.84375 20.671875 -7.6875 L 20.671875 0 L 12.828125 0 L 12.828125 -6.4375 C 12.828125 -7.25 12.6875 -7.835938 12.40625 -8.203125 C 12.132812 -8.578125 11.535156 -8.765625 10.609375 -8.765625 L 10.609375 -14.8125 C 11.222656 -14.8125 11.796875 -14.9375 12.328125 -15.1875 C 12.859375 -15.4375 13.125 -15.910156 13.125 -16.609375 C 13.125 -17.179688 12.976562 -17.632812 12.6875 -17.96875 C 12.394531 -18.300781 11.941406 -18.46875 11.328125 -18.46875 C 10.628906 -18.46875 10.15625 -18.300781 9.90625 -17.96875 C 9.65625 -17.632812 9.53125 -17.0625 9.53125 -16.25 L 9.53125 0 L 1.6875 0 L 1.6875 -16.0625 C 1.6875 -19.101562 2.503906 -21.453125 4.140625 -23.109375 C 5.785156 -24.765625 8.15625 -25.59375 11.25 -25.59375 C 12.5 -25.59375 13.664062 -25.382812 14.75 -24.96875 C 15.84375 -24.5625 16.800781 -24.007812 17.625 -23.3125 C 18.457031 -22.625 19.113281 -21.8125 19.59375 -20.875 C 20.070312 -19.945312 20.3125 -18.953125 20.3125 -17.890625 Z M 20.3125 -17.890625 "/></g></g></g><g fill="#ffffff" fill-opacity="1"><g transform="translate(220.125931, 56.424098)"><g><path d="M 16.0625 -25.15625 L 16.0625 -17.96875 L 11.890625 -17.96875 L 11.890625 0 L 4.0625 0 L 4.0625 -17.96875 L -0.078125 -17.96875 L -0.078125 -25.15625 Z M 16.0625 -25.15625 "/></g></g></g><g fill="#ffffff" fill-opacity="1"><g transform="translate(236.079596, 56.424098)"><g><path d="M 16.5625 -25.15625 L 16.5625 -18.109375 L 11.609375 -18.109375 C 10.816406 -18.109375 10.269531 -18.039062 9.96875 -17.90625 C 9.675781 -17.78125 9.53125 -17.550781 9.53125 -17.21875 C 9.53125 -16.945312 9.738281 -16.625 10.15625 -16.25 C 10.570312 -15.882812 11.1875 -15.425781 12 -14.875 C 12.8125 -14.300781 13.5625 -13.71875 14.25 -13.125 C 14.9375 -12.539062 15.523438 -11.925781 16.015625 -11.28125 C 16.503906 -10.632812 16.882812 -9.953125 17.15625 -9.234375 C 17.4375 -8.515625 17.578125 -7.757812 17.578125 -6.96875 C 17.578125 -5.769531 17.320312 -4.734375 16.8125 -3.859375 C 16.3125 -2.984375 15.644531 -2.257812 14.8125 -1.6875 C 13.988281 -1.113281 13.03125 -0.6875 11.9375 -0.40625 C 10.851562 -0.132812 9.738281 0 8.59375 0 L 0.828125 0 L 0.828125 -7.1875 L 5.828125 -7.1875 C 6.828125 -7.1875 7.523438 -7.265625 7.921875 -7.421875 C 8.316406 -7.578125 8.515625 -7.894531 8.515625 -8.375 C 8.515625 -8.832031 7.75 -9.625 6.21875 -10.75 C 5.476562 -11.300781 4.78125 -11.859375 4.125 -12.421875 C 3.476562 -12.984375 2.914062 -13.570312 2.4375 -14.1875 C 1.957031 -14.8125 1.582031 -15.457031 1.3125 -16.125 C 1.039062 -16.800781 0.90625 -17.523438 0.90625 -18.296875 C 0.90625 -20.617188 1.648438 -22.34375 3.140625 -23.46875 C 4.640625 -24.59375 6.695312 -25.15625 9.3125 -25.15625 Z M 16.5625 -25.15625 "/></g></g></g><g fill="#ffffff" fill-opacity="1"><g transform="translate(254.045444, 56.424098)"><g><path d="M 9.671875 -25.15625 L 9.671875 -16.140625 C 9.835938 -16.140625 9.972656 -16.15625 10.078125 -16.1875 C 10.191406 -16.226562 10.269531 -16.269531 10.3125 -16.3125 C 10.507812 -16.476562 10.691406 -16.828125 10.859375 -17.359375 C 11.023438 -17.890625 11.25 -18.570312 11.53125 -19.40625 L 13.4375 -25.15625 L 21.3125 -25.15625 L 19.015625 -18.15625 C 18.773438 -17.40625 18.585938 -16.867188 18.453125 -16.546875 C 18.316406 -16.222656 18.179688 -15.929688 18.046875 -15.671875 C 17.773438 -15.117188 17.351562 -14.578125 16.78125 -14.046875 C 18.03125 -13.597656 18.988281 -12.984375 19.65625 -12.203125 C 20.332031 -11.421875 20.671875 -10.585938 20.671875 -9.703125 L 20.671875 0 L 12.828125 0 L 12.828125 -8.65625 C 12.828125 -9.132812 12.601562 -9.519531 12.15625 -9.8125 C 11.71875 -10.101562 10.890625 -10.25 9.671875 -10.25 L 9.671875 0 L 1.828125 0 L 1.828125 -25.15625 Z M 9.671875 -25.15625 "/></g></g></g><g fill="#ffffff" fill-opacity="1"><g transform="translate(276.682406, 56.424098)"><g><path d="M 9.5625 -25.15625 L 9.5625 0 L 1.71875 0 L 1.71875 -25.15625 Z M 9.5625 -25.15625 "/></g></g></g><g fill="#ffffff" fill-opacity="1"><g transform="translate(288.000886, 56.424098)"><g><path d="M 9.59375 -25.15625 L 9.59375 -9.265625 C 9.59375 -8.742188 9.703125 -8.332031 9.921875 -8.03125 C 10.140625 -7.726562 10.519531 -7.519531 11.0625 -7.40625 C 11.28125 -7.351562 11.472656 -7.316406 11.640625 -7.296875 C 11.804688 -7.273438 12.003906 -7.253906 12.234375 -7.234375 C 12.460938 -7.222656 12.742188 -7.210938 13.078125 -7.203125 C 13.410156 -7.191406 13.851562 -7.1875 14.40625 -7.1875 L 16.140625 -7.1875 L 16.140625 0 L 9.09375 0 C 8.039062 0 7.0625 -0.175781 6.15625 -0.53125 C 5.257812 -0.894531 4.488281 -1.398438 3.84375 -2.046875 C 3.195312 -2.691406 2.6875 -3.457031 2.3125 -4.34375 C 1.945312 -5.226562 1.765625 -6.203125 1.765625 -7.265625 L 1.765625 -25.15625 Z M 9.59375 -25.15625 "/></g></g></g><g fill="#ffffff" fill-opacity="1"><g transform="translate(303.954552, 56.424098)"><g><path d="M 9.59375 -25.15625 L 9.59375 -9.265625 C 9.59375 -8.742188 9.703125 -8.332031 9.921875 -8.03125 C 10.140625 -7.726562 10.519531 -7.519531 11.0625 -7.40625 C 11.28125 -7.351562 11.472656 -7.316406 11.640625 -7.296875 C 11.804688 -7.273438 12.003906 -7.253906 12.234375 -7.234375 C 12.460938 -7.222656 12.742188 -7.210938 13.078125 -7.203125 C 13.410156 -7.191406 13.851562 -7.1875 14.40625 -7.1875 L 16.140625 -7.1875 L 16.140625 0 L 9.09375 0 C 8.039062 0 7.0625 -0.175781 6.15625 -0.53125 C 5.257812 -0.894531 4.488281 -1.398438 3.84375 -2.046875 C 3.195312 -2.691406 2.6875 -3.457031 2.3125 -4.34375 C 1.945312 -5.226562 1.765625 -6.203125 1.765625 -7.265625 L 1.765625 -25.15625 Z M 9.59375 -25.15625 "/></g></g></g><g fill="#ffffff" fill-opacity="1"><g transform="translate(319.908217, 56.424098)"><g><path d="M 13.578125 -25.15625 C 15.191406 -25.15625 16.492188 -24.734375 17.484375 -23.890625 C 18.472656 -23.054688 18.96875 -21.8125 18.96875 -20.15625 C 18.96875 -19.75 18.9375 -19.390625 18.875 -19.078125 C 18.820312 -18.765625 18.734375 -18.460938 18.609375 -18.171875 C 18.492188 -17.890625 18.335938 -17.601562 18.140625 -17.3125 C 17.953125 -17.03125 17.71875 -16.722656 17.4375 -16.390625 L 10.0625 -7.1875 L 18.96875 -7.1875 L 18.96875 0 L 5.640625 0 C 4.035156 0 2.738281 -0.414062 1.75 -1.25 C 0.769531 -2.09375 0.28125 -3.34375 0.28125 -5 C 0.28125 -5.625 0.375 -6.207031 0.5625 -6.75 C 0.757812 -7.300781 1.171875 -7.960938 1.796875 -8.734375 L 9.5625 -17.96875 L 1.578125 -17.96875 L 1.578125 -25.15625 Z M 13.578125 -25.15625 "/></g></g></g><g fill="#ffffff" fill-opacity="1"><g transform="translate(339.203539, 56.424098)"><g><path d="M 13.578125 -25.15625 C 15.191406 -25.15625 16.492188 -24.734375 17.484375 -23.890625 C 18.472656 -23.054688 18.96875 -21.8125 18.96875 -20.15625 C 18.96875 -19.75 18.9375 -19.390625 18.875 -19.078125 C 18.820312 -18.765625 18.734375 -18.460938 18.609375 -18.171875 C 18.492188 -17.890625 18.335938 -17.601562 18.140625 -17.3125 C 17.953125 -17.03125 17.71875 -16.722656 17.4375 -16.390625 L 10.0625 -7.1875 L 18.96875 -7.1875 L 18.96875 0 L 5.640625 0 C 4.035156 0 2.738281 -0.414062 1.75 -1.25 C 0.769531 -2.09375 0.28125 -3.34375 0.28125 -5 C 0.28125 -5.625 0.375 -6.207031 0.5625 -6.75 C 0.757812 -7.300781 1.171875 -7.960938 1.796875 -8.734375 L 9.5625 -17.96875 L 1.578125 -17.96875 L 1.578125 -25.15625 Z M 13.578125 -25.15625 "/></g></g></g></svg>